{
	"asset":{
		"generator":"Khronos glTF Blender I/O v4.1.63",
		"version":"2.0"
	},
	"extensionsUsed":[
		"KHR_materials_specular"
	],
	"scene":0,
	"scenes":[
		{
			"name":"Scene",
			"nodes":[
				0,
				1,
				2,
				3,
				4,
				5,
				6,
				7
			]
		}
	],
	"nodes":[
		{
			"mesh":0,
			"name":"Sphere_Material.001_0_cell",
			"translation":[
				0.44312405586242676,
				-0.8293198347091675,
				-3.388319730758667
			]
		},
		{
			"mesh":1,
			"name":"Sphere_Material.001_0_cell.001",
			"translation":[
				-0.8633789420127869,
				0.19106203317642212,
				-2.4147393703460693
			]
		},
		{
			"mesh":2,
			"name":"Sphere_Material.001_0_cell.002",
			"translation":[
				-0.21128955483436584,
				1.0444623231887817,
				-3.069715976715088
			]
		},
		{
			"mesh":3,
			"name":"Sphere_Material.001_0_cell.003",
			"translation":[
				-0.4098591208457947,
				0.9794340133666992,
				-2.4723963737487793
			]
		},
		{
			"mesh":4,
			"name":"Sphere_Material.001_0_cell.004",
			"translation":[
				-0.26083648204803467,
				0.34195271134376526,
				-3.7202799320220947
			]
		},
		{
			"mesh":5,
			"name":"Sphere_Material.001_0_cell.005",
			"translation":[
				0.898836612701416,
				-0.04031071066856384,
				-2.8962695598602295
			]
		},
		{
			"mesh":6,
			"name":"Sphere_Material.001_0_cell.006",
			"translation":[
				-0.21082593500614166,
				-0.9608309268951416,
				-2.811774730682373
			]
		},
		{
			"mesh":7,
			"name":"Sphere_Material.001_0_cell.007",
			"translation":[
				0.25178050994873047,
				0.696599006652832,
				-2.3234386444091797
			]
		}
	],
	"materials":[
		{
			"doubleSided":true,
			"extensions":{
				"KHR_materials_specular":{
					"specularFactor":0.30334681272506714
				}
			},
			"name":"Material.003",
			"pbrMetallicRoughness":{
				"metallicFactor":0
			}
		}
	],
	"meshes":[
		{
			"name":"Sphere_Material.001_0_cell.008",
			"primitives":[
				{
					"attributes":{
						"POSITION":0,
						"NORMAL":1,
						"TEXCOORD_0":2
					},
					"indices":3,
					"material":0
				}
			]
		},
		{
			"name":"Sphere_Material.001_0_cell.009",
			"primitives":[
				{
					"attributes":{
						"POSITION":4,
						"NORMAL":5,
						"TEXCOORD_0":6
					},
					"indices":7,
					"material":0
				}
			]
		},
		{
			"name":"Sphere_Material.001_0_cell.001",
			"primitives":[
				{
					"attributes":{
						"POSITION":8,
						"NORMAL":9,
						"TEXCOORD_0":10
					},
					"indices":11,
					"material":0
				}
			]
		},
		{
			"name":"Sphere_Material.001_0_cell.002",
			"primitives":[
				{
					"attributes":{
						"POSITION":12,
						"NORMAL":13,
						"TEXCOORD_0":14
					},
					"indices":15,
					"material":0
				}
			]
		},
		{
			"name":"Sphere_Material.001_0_cell.003",
			"primitives":[
				{
					"attributes":{
						"POSITION":16,
						"NORMAL":17,
						"TEXCOORD_0":18
					},
					"indices":19,
					"material":0
				}
			]
		},
		{
			"name":"Sphere_Material.001_0_cell.004",
			"primitives":[
				{
					"attributes":{
						"POSITION":20,
						"NORMAL":21,
						"TEXCOORD_0":22
					},
					"indices":23,
					"material":0
				}
			]
		},
		{
			"name":"Sphere_Material.001_0_cell.005",
			"primitives":[
				{
					"attributes":{
						"POSITION":24,
						"NORMAL":25,
						"TEXCOORD_0":26
					},
					"indices":27,
					"material":0
				}
			]
		},
		{
			"name":"Sphere_Material.001_0_cell.006",
			"primitives":[
				{
					"attributes":{
						"POSITION":28,
						"NORMAL":29,
						"TEXCOORD_0":30
					},
					"indices":31,
					"material":0
				}
			]
		}
	],
	"accessors":[
		{
			"bufferView":0,
			"componentType":5126,
			"count":385,
			"max":[
				0.4841592609882355,
				0.8281729221343994,
				1.137326717376709
			],
			"min":[
				-0.7841786742210388,
				-0.334726482629776,
				-0.7066817283630371
			],
			"type":"VEC3"
		},
		{
			"bufferView":1,
			"componentType":5126,
			"count":385,
			"type":"VEC3"
		},
		{
			"bufferView":2,
			"componentType":5126,
			"count":385,
			"type":"VEC2"
		},
		{
			"bufferView":3,
			"componentType":5123,
			"count":1494,
			"type":"SCALAR"
		},
		{
			"bufferView":4,
			"componentType":5126,
			"count":319,
			"max":[
				0.8616878390312195,
				0.7939273118972778,
				0.6047092080116272
			],
			"min":[
				-0.35117214918136597,
				-0.698391318321228,
				-0.6938261389732361
			],
			"type":"VEC3"
		},
		{
			"bufferView":5,
			"componentType":5126,
			"count":319,
			"type":"VEC3"
		},
		{
			"bufferView":6,
			"componentType":5126,
			"count":319,
			"type":"VEC2"
		},
		{
			"bufferView":7,
			"componentType":5123,
			"count":1284,
			"type":"SCALAR"
		},
		{
			"bufferView":8,
			"componentType":5126,
			"count":600,
			"max":[
				0.9614293575286865,
				0.17008933424949646,
				0.389110267162323
			],
			"min":[
				-0.9874080419540405,
				-1.0414032936096191,
				-0.4067866802215576
			],
			"type":"VEC3"
		},
		{
			"bufferView":9,
			"componentType":5126,
			"count":600,
			"type":"VEC3"
		},
		{
			"bufferView":10,
			"componentType":5126,
			"count":600,
			"type":"VEC2"
		},
		{
			"bufferView":11,
			"componentType":5123,
			"count":2226,
			"type":"SCALAR"
		},
		{
			"bufferView":12,
			"componentType":5126,
			"count":120,
			"max":[
				0.4082004427909851,
				0.197384774684906,
				0.4507249891757965
			],
			"min":[
				-0.2521602213382721,
				-0.9745665788650513,
				-0.47060129046440125
			],
			"type":"VEC3"
		},
		{
			"bufferView":13,
			"componentType":5126,
			"count":120,
			"type":"VEC3"
		},
		{
			"bufferView":14,
			"componentType":5126,
			"count":120,
			"type":"VEC2"
		},
		{
			"bufferView":15,
			"componentType":5123,
			"count":402,
			"type":"SCALAR"
		},
		{
			"bufferView":16,
			"componentType":5126,
			"count":527,
			"max":[
				1.0348879098892212,
				0.7548055648803711,
				0.7745258808135986
			],
			"min":[
				-0.9420285820960999,
				-0.9408591985702515,
				-0.43912312388420105
			],
			"type":"VEC3"
		},
		{
			"bufferView":17,
			"componentType":5126,
			"count":527,
			"type":"VEC3"
		},
		{
			"bufferView":18,
			"componentType":5126,
			"count":527,
			"type":"VEC2"
		},
		{
			"bufferView":19,
			"componentType":5123,
			"count":2310,
			"type":"SCALAR"
		},
		{
			"bufferView":20,
			"componentType":5126,
			"count":481,
			"max":[
				0.31571486592292786,
				0.9413999915122986,
				1.0668543577194214
			],
			"min":[
				-0.8974471092224121,
				-0.7861685156822205,
				-1.138644814491272
			],
			"type":"VEC3"
		},
		{
			"bufferView":21,
			"componentType":5126,
			"count":481,
			"type":"VEC3"
		},
		{
			"bufferView":22,
			"componentType":5126,
			"count":481,
			"type":"VEC2"
		},
		{
			"bufferView":23,
			"componentType":5123,
			"count":2052,
			"type":"SCALAR"
		},
		{
			"bufferView":24,
			"componentType":5126,
			"count":808,
			"max":[
				0.8399875164031982,
				0.9592479467391968,
				1.0091018676757812
			],
			"min":[
				-0.9273413419723511,
				-0.253720760345459,
				-1.1388131380081177
			],
			"type":"VEC3"
		},
		{
			"bufferView":25,
			"componentType":5126,
			"count":808,
			"type":"VEC3"
		},
		{
			"bufferView":26,
			"componentType":5126,
			"count":808,
			"type":"VEC2"
		},
		{
			"bufferView":27,
			"componentType":5123,
			"count":3534,
			"type":"SCALAR"
		},
		{
			"bufferView":28,
			"componentType":5126,
			"count":500,
			"max":[
				0.6847406029701233,
				0.5049842596054077,
				0.5931386947631836
			],
			"min":[
				-0.7029067277908325,
				-1.1142712831497192,
				-0.9259607791900635
			],
			"type":"VEC3"
		},
		{
			"bufferView":29,
			"componentType":5126,
			"count":500,
			"type":"VEC3"
		},
		{
			"bufferView":30,
			"componentType":5126,
			"count":500,
			"type":"VEC2"
		},
		{
			"bufferView":31,
			"componentType":5123,
			"count":2196,
			"type":"SCALAR"
		}
	],
	"bufferViews":[
		{
			"buffer":0,
			"byteLength":4620,
			"byteOffset":0,
			"target":34962
		},
		{
			"buffer":0,
			"byteLength":4620,
			"byteOffset":4620,
			"target":34962
		},
		{
			"buffer":0,
			"byteLength":3080,
			"byteOffset":9240,
			"target":34962
		},
		{
			"buffer":0,
			"byteLength":2988,
			"byteOffset":12320,
			"target":34963
		},
		{
			"buffer":0,
			"byteLength":3828,
			"byteOffset":15308,
			"target":34962
		},
		{
			"buffer":0,
			"byteLength":3828,
			"byteOffset":19136,
			"target":34962
		},
		{
			"buffer":0,
			"byteLength":2552,
			"byteOffset":22964,
			"target":34962
		},
		{
			"buffer":0,
			"byteLength":2568,
			"byteOffset":25516,
			"target":34963
		},
		{
			"buffer":0,
			"byteLength":7200,
			"byteOffset":28084,
			"target":34962
		},
		{
			"buffer":0,
			"byteLength":7200,
			"byteOffset":35284,
			"target":34962
		},
		{
			"buffer":0,
			"byteLength":4800,
			"byteOffset":42484,
			"target":34962
		},
		{
			"buffer":0,
			"byteLength":4452,
			"byteOffset":47284,
			"target":34963
		},
		{
			"buffer":0,
			"byteLength":1440,
			"byteOffset":51736,
			"target":34962
		},
		{
			"buffer":0,
			"byteLength":1440,
			"byteOffset":53176,
			"target":34962
		},
		{
			"buffer":0,
			"byteLength":960,
			"byteOffset":54616,
			"target":34962
		},
		{
			"buffer":0,
			"byteLength":804,
			"byteOffset":55576,
			"target":34963
		},
		{
			"buffer":0,
			"byteLength":6324,
			"byteOffset":56380,
			"target":34962
		},
		{
			"buffer":0,
			"byteLength":6324,
			"byteOffset":62704,
			"target":34962
		},
		{
			"buffer":0,
			"byteLength":4216,
			"byteOffset":69028,
			"target":34962
		},
		{
			"buffer":0,
			"byteLength":4620,
			"byteOffset":73244,
			"target":34963
		},
		{
			"buffer":0,
			"byteLength":5772,
			"byteOffset":77864,
			"target":34962
		},
		{
			"buffer":0,
			"byteLength":5772,
			"byteOffset":83636,
			"target":34962
		},
		{
			"buffer":0,
			"byteLength":3848,
			"byteOffset":89408,
			"target":34962
		},
		{
			"buffer":0,
			"byteLength":4104,
			"byteOffset":93256,
			"target":34963
		},
		{
			"buffer":0,
			"byteLength":9696,
			"byteOffset":97360,
			"target":34962
		},
		{
			"buffer":0,
			"byteLength":9696,
			"byteOffset":107056,
			"target":34962
		},
		{
			"buffer":0,
			"byteLength":6464,
			"byteOffset":116752,
			"target":34962
		},
		{
			"buffer":0,
			"byteLength":7068,
			"byteOffset":123216,
			"target":34963
		},
		{
			"buffer":0,
			"byteLength":6000,
			"byteOffset":130284,
			"target":34962
		},
		{
			"buffer":0,
			"byteLength":6000,
			"byteOffset":136284,
			"target":34962
		},
		{
			"buffer":0,
			"byteLength":4000,
			"byteOffset":142284,
			"target":34962
		},
		{
			"buffer":0,
			"byteLength":4392,
			"byteOffset":146284,
			"target":34963
		}
	],
	"buffers":[
		{
			"byteLength":150676,
			"uri":"moon.bin"
		}
	]
}
